<svg width="512" height="512" viewBox="0 0 512 512" fill="none" xmlns="http://www.w3.org/2000/svg">
<rect width="512" height="512" rx="256" fill="white"/>
<path d="M152.648 178.104L121.832 327H162.44L179.144 247.224C180.104 242.616 181.64 237.912 183.752 233.112C185.864 228.312 188.456 223.992 191.528 220.152C194.792 216.12 198.536 212.856 202.76 210.36C207.176 207.672 212.072 206.328 217.448 206.328C222.632 206.328 226.856 207.864 230.12 210.936C233.576 214.008 235.304 217.752 235.304 222.168C235.304 225.432 234.92 228.984 234.152 232.824L214.568 327H255.752L272.456 247.224C273.416 242.616 274.952 237.912 277.064 233.112C279.176 228.312 281.768 223.992 284.84 220.152C288.104 216.12 291.848 212.856 296.072 210.36C300.488 207.672 305.384 206.328 310.76 206.328C315.944 206.328 320.168 207.864 323.432 210.936C326.888 214.008 328.616 217.752 328.616 222.168C328.616 225.432 328.232 228.984 327.464 232.824L307.88 327H348.776L367.208 239.448C368.168 235.032 369.128 230.52 370.088 225.912C371.048 221.112 371.528 216.408 371.528 211.8C371.528 205.464 370.28 199.896 367.784 195.096C365.288 190.296 361.928 186.36 357.704 183.288C353.48 180.216 348.584 177.912 343.016 176.376C337.64 174.84 332.072 174.072 326.312 174.072C321.512 174.072 316.616 174.744 311.624 176.088C306.824 177.24 302.216 178.968 297.8 181.272C293.384 183.576 289.256 186.36 285.416 189.624C281.576 192.696 278.408 196.152 275.912 199.992C274.184 190.776 270.056 184.152 263.528 180.12C257 176.088 249.128 174.072 239.912 174.072C228.968 174.072 219.08 176.088 210.248 180.12C201.416 184.152 193.928 190.488 187.784 199.128H187.208L191.816 178.104H152.648Z" fill="black"/>
</svg>
